PathFileType	4	(X/Y/Z)	C:/Users/Rosti/Documents/GitHub/TechForParalysis/Code/Model/04122019 - Marker Volunteer01/Rosti Data/New Session 103.trc	
DataRate	CameraRate	NumFrames	NumMarkers	Units	OrigDataRate	OrigDataStartFrame	OrigNumFrames	
100.00	100.00	35	14	mm	100.00	233	620	
Frame#	Time	C7			PX			T8			IJ			SC			AC			AI			TS			AA			GH			LE			ME			US			RS			
		X1	Y1	Z1	X2	Y2	Z2	X3	Y3	Z3	X4	Y4	Z4	X5	Y5	Z5	X6	Y6	Z6	X7	Y7	Z7	X8	Y8	Z8	X9	Y9	Z9	X10	Y10	Z10	X11	Y11	Z11	X12	Y12	Z12	X13	Y13	Z13	X14	Y14	Z14	

233	2.32	13.823	1534.34	702.385	-17.9556	1294.21	466.202	6.76932	1319.15	768.125	-13.3697	1435.43	536.821	11.8585	1442.66	541.473	160.424	1471.85	606.708	94.083	1453.25	737	89.659	1335.52	768.919	209.224	1425.55	675.744	221.024	1437.77	634.806	264.899	1153.31	543.281	178.511	1125.63	515.681	317.55	1099.42	270.244	372.619	1146.08	299.961
234	2.33	13.8758	1534.34	702.369	-17.9227	1294.21	466.203	6.81239	1319.21	768.285	-13.279	1435.43	536.808	11.9524	1442.69	541.44	160.48	1471.91	606.754	94.1787	1453.21	736.972	89.7592	1335.54	768.932	209.262	1425.51	675.72	221.066	1437.79	634.833	265.786	1154.22	542.182	179.4	1126.05	514.525	317.182	1110.88	267.315	371.465	1157.53	298.499
235	2.34	13.923	1534.35	702.351	-17.8849	1294.19	466.229	6.86152	1319.26	768.456	-13.1974	1435.44	536.796	12.0352	1442.72	541.407	160.525	1471.98	606.806	94.2696	1453.16	736.949	89.8729	1335.55	768.936	209.296	1425.47	675.697	221.101	1437.83	634.861	266.786	1155.17	541.043	180.336	1126.56	513.282	316.672	1122.4	264.875	370.152	1169.02	297.383
236	2.35	13.9654	1534.34	702.328	-17.8354	1294.14	466.289	6.91588	1319.32	768.627	-13.1262	1435.45	536.786	12.1102	1442.73	541.381	160.527	1472.01	606.86	94.3509	1453.1	736.932	89.9921	1335.56	768.923	209.331	1425.44	675.675	221.124	1437.89	634.892	267.871	1156.19	539.846	181.327	1127.17	511.959	315.922	1134.13	262.838	368.694	1180.51	296.635
237	2.36	14.0038	1534.34	702.3	-17.7757	1294.06	466.376	6.97516	1319.37	768.787	-13.0664	1435.46	536.776	12.1814	1442.73	541.362	160.463	1472.01	606.906	94.4184	1453.05	736.924	90.1087	1335.57	768.887	209.369	1425.41	675.655	221.135	1437.96	634.92	268.99	1157.29	538.574	182.387	1127.87	510.572	314.952	1145.99	261.136	367.088	1191.99	296.237
238	2.37	14.0386	1534.34	702.268	-17.7168	1293.97	466.468	7.0395	1319.42	768.923	-13.0185	1435.47	536.764	12.2488	1442.71	541.344	160.362	1471.99	606.938	94.4645	1453.01	736.927	90.2169	1335.57	768.824	209.412	1425.4	675.632	221.138	1438.05	634.93	270.132	1158.46	537.233	183.515	1128.67	509.129	313.789	1157.85	259.743	365.318	1203.41	296.161
239	2.38	14.0697	1534.35	702.237	-17.6694	1293.9	466.544	7.10945	1319.46	769.029	-12.9824	1435.49	536.747	12.3049	1442.7	541.321	160.282	1472.01	606.96	94.4881	1452.98	736.941	90.3145	1335.57	768.73	209.464	1425.41	675.596	221.142	1438.15	634.911	271.291	1159.71	535.837	184.701	1129.55	507.632	312.429	1169.64	258.675	363.355	1214.74	296.392
240	2.39	14.0978	1534.37	702.207	-17.6348	1293.83	466.607	7.18599	1319.49	769.101	-12.9564	1435.52	536.725	12.3432	1442.7	541.288	160.251	1472.08	606.972	94.5018	1452.97	736.959	90.4045	1335.56	768.604	209.524	1425.43	675.535	221.152	1438.27	634.863	272.451	1160.99	534.406	185.923	1130.48	506.085	310.868	1181.31	257.952	361.178	1225.98	296.941
241	2.4	14.1243	1534.38	702.175	-17.6077	1293.77	466.665	7.27039	1319.52	769.139	-12.9375	1435.54	536.696	12.3654	1442.7	541.242	160.255	1472.2	606.975	94.5251	1452.96	736.967	90.4959	1335.54	768.444	209.592	1425.47	675.447	221.17	1438.41	634.798	273.603	1162.3	532.963	187.156	1131.44	504.486	309.118	1192.83	257.575	358.806	1237.08	297.822
242	2.41	14.1502	1534.4	702.141	-17.5825	1293.69	466.726	7.36413	1319.54	769.145	-12.9221	1435.57	536.662	12.383	1442.7	541.186	160.264	1472.35	606.97	94.5697	1452.94	736.955	90.6012	1335.51	768.25	209.662	1425.52	675.337	221.196	1438.57	634.724	274.754	1163.61	531.521	188.374	1132.41	502.839	307.196	1204.25	257.554	356.29	1247.99	299.039
243	2.42	14.1757	1534.4	702.105	-17.5572	1293.62	466.776	7.4687	1319.56	769.124	-12.9078	1435.6	536.622	12.4075	1442.7	541.132	160.263	1472.5	606.958	94.635	1452.91	736.92	90.7319	1335.47	768.025	209.731	1425.58	675.218	221.228	1438.75	634.642	275.896	1164.94	530.084	189.554	1133.36	501.146	305.083	1215.6	257.915	353.683	1258.67	300.582
244	2.43	14.2019	1534.4	702.068	-17.5312	1293.57	466.801	7.58538	1319.57	769.079	-12.8935	1435.63	536.578	12.4389	1442.69	541.081	160.255	1472.65	606.939	94.7148	1452.88	736.864	90.8943	1335.44	767.779	209.798	1425.64	675.091	221.267	1438.94	634.547	276.996	1166.26	528.653	190.681	1134.3	499.419	302.763	1226.87	258.666	351.019	1269.08	302.439
245	2.44	14.2308	1534.4	702.029	-17.5021	1293.54	466.806	7.71507	1319.57	769.014	-12.8795	1435.65	536.53	12.4677	1442.7	541.024	160.25	1472.79	606.907	94.8038	1452.84	736.789	91.0862	1335.41	767.532	209.868	1425.69	674.952	221.311	1439.12	634.427	278.039	1167.58	527.225	191.75	1135.24	497.676	300.248	1237.98	259.788	348.306	1279.2	304.586
246	2.45	14.2639	1534.41	701.988	-17.4687	1293.51	466.814	7.85802	1319.58	768.932	-12.8664	1435.67	536.477	12.4833	1442.71	540.95	160.249	1472.9	606.855	94.9019	1452.82	736.702	91.2977	1335.4	767.315	209.957	1425.74	674.793	221.35	1439.29	634.273	279.051	1168.88	525.801	192.758	1136.2	495.943	297.565	1248.87	261.246	345.525	1289.03	307.006
247	2.46	14.3022	1534.44	701.943	-17.4302	1293.48	466.838	8.01371	1319.59	768.834	-12.8547	1435.68	536.418	12.4845	1442.73	540.859	160.246	1473	606.78	95.0123	1452.82	736.606	91.5167	1335.42	767.153	210.077	1425.82	674.609	221.382	1439.45	634.083	280.099	1170.17	524.396	193.706	1137.21	494.239	294.749	1259.5	263.007	342.642	1298.56	309.705
248	2.47	14.3464	1534.48	701.89	-17.3873	1293.45	466.873	8.18064	1319.59	768.723	-12.845	1435.68	536.354	12.4766	1442.75	540.761	160.237	1473.1	606.684	95.1366	1452.85	736.502	91.7361	1335.47	767.045	210.223	1425.91	674.401	221.41	1439.6	633.87	281.194	1171.44	523.019	194.587	1138.29	492.55	291.815	1269.88	265.059	339.654	1307.81	312.69
249	2.48	14.3974	1534.53	701.823	-17.3436	1293.42	466.893	8.35633	1319.6	768.599	-12.8374	1435.67	536.283	12.4671	1442.77	540.669	160.229	1473.2	606.574	95.2731	1452.89	736.393	91.9567	1335.55	766.971	210.379	1426.02	674.176	221.445	1439.76	633.649	282.274	1172.69	521.653	195.399	1139.45	490.843	288.727	1280.02	267.436	336.601	1316.79	315.962
250	2.49	14.4565	1534.57	701.737	-17.3056	1293.39	466.88	8.53739	1319.6	768.465	-12.8317	1435.66	536.204	12.4594	1442.77	540.586	160.236	1473.34	606.456	95.4186	1452.94	736.275	92.1833	1335.64	766.903	210.532	1426.12	673.935	221.488	1439.93	633.429	283.266	1173.88	520.271	196.158	1140.67	489.095	285.467	1289.93	270.158	333.509	1325.48	319.499
251	2.5	14.5234	1534.6	701.634	-17.2797	1293.36	466.836	8.71992	1319.61	768.322	-12.8273	1435.64	536.119	12.4566	1442.77	540.507	160.269	1473.52	606.33	95.5679	1452.98	736.149	92.4188	1335.73	766.82	210.685	1426.2	673.679	221.531	1440.1	633.2	284.157	1175.01	518.872	196.878	1141.93	487.292	282.069	1299.6	273.185	330.374	1333.87	323.27
252	2.51	14.5971	1534.62	701.521	-17.2669	1293.34	466.773	8.89992	1319.61	768.174	-12.8236	1435.62	536.026	12.4646	1442.76	540.426	160.321	1473.7	606.192	95.715	1453	736.013	92.6608	1335.8	766.707	210.846	1426.26	673.404	221.571	1440.26	632.944	284.999	1176.09	517.467	197.559	1143.17	485.428	278.573	1308.98	276.472	327.157	1341.94	327.24
253	2.52	14.6759	1534.62	701.402	-17.2632	1293.32	466.705	9.07387	1319.61	768.024	-12.8204	1435.6	535.929	12.4826	1442.78	540.345	160.371	1473.85	606.038	95.8563	1453.01	735.875	92.9026	1335.87	766.558	211.016	1426.32	673.111	221.613	1440.38	632.651	285.834	1177.17	516.059	198.197	1144.36	483.53	274.984	1318.05	280.019	323.84	1349.67	331.385
254	2.53	14.7593	1534.62	701.285	-17.2626	1293.29	466.64	9.2392	1319.61	767.874	-12.8175	1435.58	535.829	12.5045	1442.81	540.267	160.405	1473.94	605.872	95.9923	1453.01	735.738	93.1362	1335.92	766.386	211.187	1426.36	672.808	221.665	1440.5	632.329	286.671	1178.23	514.64	198.792	1145.49	481.656	271.305	1326.82	283.82	320.47	1357.07	335.684
255	2.54	14.8476	1534.61	701.17	-17.2585	1293.27	466.583	9.39455	1319.61	767.729	-12.8149	1435.56	535.726	12.5203	1442.84	540.185	160.426	1474	605.703	96.1253	1453.01	735.609	93.3552	1335.97	766.206	211.35	1426.4	672.513	221.723	1440.6	632	287.512	1179.31	513.204	199.332	1146.59	479.845	267.562	1335.25	287.834	317.112	1364.12	340.123
256	2.55	14.9394	1534.61	701.058	-17.2463	1293.26	466.533	9.53982	1319.61	767.592	-12.8126	1435.54	535.624	12.5132	1442.87	540.08	160.44	1474.04	605.546	96.2562	1453.01	735.487	93.5545	1336.02	766.033	211.505	1426.44	672.245	221.763	1440.7	631.682	288.358	1180.38	511.746	199.807	1147.69	478.099	263.797	1343.31	292.018	313.795	1370.83	344.691
257	2.56	15.0309	1534.62	700.947	-17.2251	1293.24	466.489	9.67591	1319.62	767.466	-12.8105	1435.52	535.523	12.4804	1442.86	539.949	160.451	1474.1	605.406	96.3839	1453.01	735.372	93.7308	1336.06	765.872	211.663	1426.49	672.013	221.766	1440.79	631.393	289.209	1181.46	510.267	200.231	1148.82	476.396	260.056	1350.99	296.344	310.517	1377.22	349.384
258	2.57	15.1172	1534.62	700.832	-17.1987	1293.23	466.442	9.8042	1319.62	767.353	-12.809	1435.49	535.424	12.4498	1442.84	539.821	160.46	1474.18	605.283	96.5074	1453.02	735.261	93.8834	1336.1	765.723	211.825	1426.55	671.81	221.751	1440.88	631.146	290.046	1182.54	508.763	200.621	1150.02	474.701	256.357	1358.31	300.807	307.267	1383.32	354.196
259	2.58	15.1936	1534.62	700.711	-17.1752	1293.2	466.365	9.92575	1319.63	767.252	-12.8089	1435.46	535.325	12.4435	1442.82	539.72	160.464	1474.27	605.173	96.625	1453.03	735.154	94.0149	1336.13	765.581	211.975	1426.61	671.624	221.77	1440.97	630.942	290.839	1183.6	507.219	200.992	1151.27	472.981	252.699	1365.31	305.416	304.028	1389.13	359.109
260	2.59	15.2585	1534.61	700.581	-17.164	1293.16	466.218	10.0408	1319.65	767.164	-12.8103	1435.42	535.227	12.4662	1442.81	539.657	160.463	1474.37	605.07	96.7351	1453.04	735.05	94.1301	1336.16	765.44	212.085	1426.65	671.437	221.872	1441.09	630.772	291.574	1184.65	505.624	201.349	1152.55	471.219	249.066	1372.02	310.161	300.787	1394.67	364.09
261	2.6	15.3135	1534.6	700.445	-17.1715	1293.12	465.977	10.149	1319.66	767.083	-12.8136	1435.38	535.13	12.5164	1442.79	539.63	160.461	1474.46	604.973	96.8366	1453.05	734.948	94.2353	1336.18	765.3	212.138	1426.65	671.236	222.045	1441.24	630.614	292.246	1185.71	503.973	201.697	1153.81	469.427	245.447	1378.43	315.011	297.546	1399.92	369.091
262	2.61	15.3633	1534.57	700.308	-17.1958	1293.08	465.671	10.2495	1319.68	767.008	-12.8188	1435.34	535.033	12.5832	1442.74	539.621	160.46	1474.51	604.885	96.9286	1453.05	734.847	94.3368	1336.19	765.165	212.16	1426.62	671.014	222.196	1441.38	630.429	292.871	1186.8	502.287	202.041	1155.04	467.633	241.848	1384.52	319.923	294.326	1404.83	374.067
263	2.62	15.4139	1534.54	700.175	-17.2183	1293.06	465.399	10.3419	1319.69	766.935	-12.8263	1435.3	534.936	12.6406	1442.67	539.591	160.45	1474.5	604.811	97.011	1453.04	734.748	94.4403	1336.21	765.036	212.207	1426.58	670.774	222.221	1441.48	630.187	293.469	1187.91	500.589	202.383	1156.22	465.862	238.306	1390.25	324.851	291.16	1409.37	378.983
264	2.63	15.4676	1534.5	700.049	-17.2118	1293.05	465.266	10.4258	1319.71	766.86	-12.8365	1435.26	534.839	12.6656	1442.62	539.521	160.413	1474.43	604.739	97.085	1453.03	734.654	94.5485	1336.24	764.914	212.311	1426.57	670.52	222.127	1441.53	629.898	294.06	1189.04	498.885	202.727	1157.38	464.13	234.855	1395.58	329.763	288.098	1413.53	383.823
265	2.64	15.5208	1534.47	699.931	-17.1685	1293.03	465.281	10.5015	1319.73	766.781	-12.8499	1435.23	534.743	12.659	1442.6	539.419	160.349	1474.35	604.662	97.1533	1453.02	734.566	94.6599	1336.27	764.797	212.457	1426.58	670.258	222.012	1441.58	629.603	294.649	1190.17	497.165	203.083	1158.54	462.437	231.524	1400.52	334.646	285.192	1417.36	388.592
266	2.65	15.565	1534.46	699.824	-17.1053	1293.01	465.363	10.5696	1319.74	766.696	-12.8672	1435.21	534.645	12.639	1442.6	539.308	160.28	1474.31	604.577	97.2176	1453.01	734.485	94.7697	1336.32	764.679	212.613	1426.61	670.003	221.946	1441.65	629.331	295.215	1191.35	495.417	203.455	1159.7	460.778	228.323	1405.09	339.489	282.448	1420.89	393.297
267	2.66	15.5913	1534.47	699.728	-17.0443	1292.99	465.427	10.6309	1319.76	766.604	-12.8889	1435.19	534.547	12.6212	1442.6	539.203	160.22	1474.34	604.484	97.2749	1453.02	734.408	94.8717	1336.38	764.559	212.744	1426.64	669.764	221.931	1441.76	629.089	295.73	1192.56	493.644	203.824	1160.88	459.139	225.238	1409.35	344.271	279.829	1424.17	397.942
